<svg width="16" height="16" viewBox="0 0 16 16" fill="none" xmlns="http://www.w3.org/2000/svg">
<path fill-rule="evenodd" clip-rule="evenodd" d="M15.953 6.178L14.333 14.224C14.118 15.242 13.231 15.978 12.193 16H3.807C2.767 15.978 1.88 15.243 1.665 14.224L0.0459969 6.178C-0.0780031 5.645 0.0489969 5.084 0.392997 4.658C0.735997 4.232 1.257 3.988 1.803 4H4.01C4.01 1.79 5.8 0 8.005 0C10.211 0 12 1.79 12 4H14.197C14.744 3.99 15.265 4.232 15.609 4.658C15.952 5.084 16.079 5.645 15.955 6.178H15.953ZM3.59 13.822C3.626 13.917 3.71 13.985 3.81 14H12.192C12.292 13.984 12.375 13.916 12.41 13.822L12.78 12H3.225L3.591 13.822H3.59ZM8.004 2C6.9 2 6.006 2.895 6.006 4H10C10 2.895 9.106 2 8.003 2H8.004ZM2.018 6L2.823 10H13.185L13.995 5.994H2.01L2.02 6H2.018Z" fill="#FFCE50"/>
</svg>
