<svg width="44" height="44" viewBox="0 0 44 44" fill="none" xmlns="http://www.w3.org/2000/svg">
<g clip-path="url(#clip0_32_93)">
<path d="M4.59998 44H35.4C36.615 44 37.6 43.015 37.6 41.8V17.2751L38.5335 17.9351C39.5274 18.6344 40.9 18.3955 41.5992 17.4016C42.2985 16.4077 42.0596 15.0352 41.0657 14.3359L33.9333 9.31333V2.2C33.9333 0.984974 32.9483 0 31.7333 0H28.8C27.585 0 26.6 0.984974 26.6 2.2V4.15433L21.2657 0.4004C20.5055 -0.131664 19.4937 -0.131664 18.7335 0.4004L-1.06649 14.3337C-1.79469 14.8457 -2.14257 15.7461 -1.94782 16.6147C-1.75306 17.4833 -1.05405 18.149 -0.176957 18.3011C-0.0507531 18.3227 0.0770676 18.3335 0.20511 18.3333C0.656904 18.3332 1.09755 18.193 1.46644 17.9322L2.39998 17.2751V41.8C2.39998 43.015 3.38495 44 4.59998 44ZM28.0667 2.2C28.0667 1.79499 28.395 1.46667 28.8 1.46667H31.7333C32.1383 1.46667 32.4667 1.79499 32.4667 2.2V8.28227L28.0667 5.18613V2.2ZM0.621643 16.7332C0.290403 16.9583 -0.160156 16.876 -0.390461 16.5484C-0.620765 16.2207 -0.545633 15.7689 -0.22169 15.5335L19.5783 1.60013C19.8318 1.42307 20.1689 1.42307 20.4224 1.60013L40.2224 15.5335C40.4431 15.6817 40.5664 15.9377 40.5445 16.2027C40.5226 16.4677 40.3591 16.7 40.117 16.81C39.8749 16.92 39.5923 16.8903 39.3783 16.7325L20.4224 3.39387C20.1691 3.21537 19.8309 3.21537 19.5776 3.39387L0.621643 16.7332ZM3.86664 16.2433L20 4.88987L36.1333 16.2433V41.8C36.1333 42.205 35.805 42.5333 35.4 42.5333H4.59998C4.19497 42.5333 3.86664 42.205 3.86664 41.8V16.2433Z" fill="#333333"/>
<path d="M5.33331 23.6133C5.33331 29.4404 9.11365 37.4983 19.769 41.0315C19.919 41.0812 20.081 41.0812 20.231 41.0315C30.8863 37.4961 34.6666 29.4382 34.6666 23.6133C34.6666 18.1867 31.2845 13.9333 26.9666 13.9333C24.3606 13.9466 21.862 14.9737 20 16.797C18.1379 14.9737 15.6394 13.9466 13.0333 13.9333C8.71545 13.9333 5.33331 18.1867 5.33331 23.6133ZM13.0333 15.4C15.4808 15.4323 17.8011 16.4955 19.4236 18.3282C19.5624 18.5043 19.7742 18.6073 19.9985 18.6076C20.2231 18.6075 20.4352 18.5045 20.5742 18.3282C22.1972 16.4949 24.5184 15.4317 26.9666 15.4C30.4624 15.4 33.2 19.0065 33.2 23.6133C33.2 28.9102 29.7364 36.2369 20 39.5619C10.2635 36.2347 6.79998 28.908 6.79998 23.6133C6.79998 19.0065 9.53751 15.4 13.0333 15.4Z" fill="#333333"/>
<path d="M23.9791 28.8933C23.1776 27.4567 22.181 25.6666 20 25.6666C17.8191 25.6666 16.8225 27.4567 16.0209 28.8933C15.7631 29.3968 15.4605 29.8762 15.1167 30.3255C14.1551 31.4731 13.8891 33.0511 14.4215 34.4505C14.869 35.4091 15.8567 35.9971 16.9127 35.9333C17.5392 35.918 18.1562 35.7758 18.7262 35.5153C19.1253 35.3256 19.5585 35.2184 20 35.2C20.4415 35.2184 20.8747 35.3256 21.2738 35.5153C21.8439 35.7758 22.4608 35.918 23.0874 35.9333C24.1436 35.9984 25.1323 35.4112 25.5807 34.4527C26.1131 33.0533 25.8472 31.4753 24.8855 30.3277C24.5409 29.8777 24.2375 29.3977 23.9791 28.8933ZM24.2482 33.8316C24.0355 34.2684 23.5699 34.5231 23.0874 34.4666C22.6459 34.4482 22.2126 34.341 21.8136 34.1513C21.2435 33.8908 20.6266 33.7486 20 33.7333C19.3735 33.7486 18.7565 33.8908 18.1865 34.1513C17.7874 34.341 17.3542 34.4482 16.9127 34.4666C16.4306 34.5235 15.9652 34.2698 15.7518 33.8338C15.4565 32.9534 15.641 31.9828 16.2387 31.2722C16.644 30.752 17 30.1952 17.3021 29.609C18.1601 28.069 18.7687 27.1333 20 27.1333C21.2313 27.1333 21.84 28.0683 22.698 29.609C23 30.1952 23.356 30.752 23.7613 31.2722C24.359 31.9828 24.5435 32.9534 24.2482 33.8338V33.8316Z" fill="#333333"/>
<path d="M13.4433 22.4818C13.7586 24.3056 15.1065 25.6292 16.5548 25.6292C16.6903 25.6293 16.8254 25.6178 16.9589 25.5948C17.7987 25.4258 18.5087 24.8689 18.8729 24.0936C19.6545 22.4257 19.3119 20.4472 18.0149 19.1392C17.4237 18.5114 16.5567 18.2225 15.707 18.3701C14.8574 18.5177 14.1387 19.0821 13.7938 19.8726C13.4001 20.6822 13.2772 21.5969 13.4433 22.4818ZM15.0999 20.5333C15.2596 20.1731 15.5764 19.9066 15.9586 19.811C16.0117 19.8027 16.0655 19.799 16.1192 19.8C16.456 19.8209 16.773 19.9656 17.0095 20.2062C17.8313 21.0671 18.0515 22.3393 17.5668 23.4263C17.4076 23.7867 17.091 24.0535 16.7088 24.1494C15.9286 24.2887 15.0918 23.4072 14.888 22.2317C14.7777 21.6574 14.8519 21.0629 15.0999 20.5333Z" fill="#333333"/>
<path d="M14.7868 27.0754C14.4254 25.6004 12.9444 24.691 11.4655 25.036C10.775 25.2575 10.2215 25.779 9.95923 26.455C9.4101 27.8668 9.90818 29.4708 11.1604 30.3233C11.5642 30.5925 12.0377 30.7382 12.523 30.7428C12.7545 30.7428 12.9847 30.7076 13.2057 30.6387C13.8965 30.4174 14.4503 29.8959 14.7127 29.2197C14.9865 28.5354 15.0127 27.7769 14.7868 27.0754ZM13.3582 28.6572C13.2687 28.9348 13.0497 29.1515 12.7712 29.238C12.4926 29.3246 12.1893 29.2701 11.9583 29.0921C11.3003 28.6249 11.0361 27.7754 11.313 27.0175C11.4118 26.7458 11.627 26.5327 11.8996 26.4367C11.9777 26.4123 12.0591 26.3999 12.1409 26.4C12.7476 26.4732 13.2448 26.916 13.3876 27.5103C13.5095 27.8846 13.4991 28.2895 13.3582 28.6572Z" fill="#333333"/>
<path d="M23.0668 25.5933C23.2 25.6164 23.335 25.6279 23.4702 25.6278C24.9192 25.6278 26.2663 24.3034 26.5824 22.4803C26.7477 21.5964 26.6254 20.6827 26.2333 19.8733C25.8689 19.0979 25.1586 18.541 24.3186 18.3722C22.7288 18.1001 21.1477 19.4927 20.803 21.4852C20.4584 23.4777 21.4726 25.3183 23.0668 25.5933ZM23.9058 19.8C23.9598 19.7999 24.0138 19.8046 24.0671 19.8139C24.4491 19.9096 24.7657 20.1761 24.9251 20.5363C25.1724 21.065 25.2466 21.6584 25.137 22.2317C24.9339 23.4051 24.0986 24.2851 23.3169 24.1494C22.5352 24.0137 22.0431 22.9064 22.2462 21.7294C22.4362 20.6375 23.1724 19.8 23.9058 19.8Z" fill="#333333"/>
<path d="M28.5345 25.036C27.0556 24.6906 25.5743 25.6002 25.2133 27.0754C24.9871 27.7769 25.013 28.5353 25.2866 29.2197C25.549 29.8959 26.1028 30.4174 26.7936 30.6387C27.0146 30.7077 27.2448 30.7428 27.4763 30.7428C27.9616 30.7382 28.4351 30.5925 28.8389 30.3233C30.0911 29.4709 30.5892 27.8669 30.0401 26.455C29.7779 25.7791 29.2247 25.2577 28.5345 25.036ZM28.7149 28.1637C28.6036 28.5412 28.3659 28.8689 28.0417 29.0921C27.8107 29.2701 27.5074 29.3246 27.2289 29.2381C26.9503 29.1515 26.7313 28.9348 26.6418 28.6572C26.5016 28.2896 26.4917 27.885 26.6139 27.511C26.8501 26.7513 27.5291 26.2643 28.0989 26.4367C28.3715 26.5327 28.5868 26.7458 28.6856 27.0175C28.8263 27.3849 28.8367 27.7895 28.7149 28.1637Z" fill="#333333"/>
</g>
<defs>
<clipPath id="clip0_32_93">
<rect width="44" height="44" fill="white"/>
</clipPath>
</defs>
</svg>
