<svg width="44" height="44" viewBox="0 0 44 44" fill="none" xmlns="http://www.w3.org/2000/svg">
<g clip-path="url(#clip0_32_84)">
<path d="M43.3467 9.77537C42.818 9.14768 42.0441 8.7876 41.2233 8.7876H39.2533C38.3787 7.24801 36.7432 6.28104 34.9411 6.28104H34.5337V3.28352C34.5337 2.80888 34.1489 2.42413 33.6743 2.42413C30.471 2.42413 27.8648 5.03029 27.8648 8.23364V10.9191C27.8648 12.7882 26.8329 14.4818 25.1719 15.3388L22.366 16.7866C21.9443 17.0043 21.7787 17.5226 21.9963 17.9444C22.1489 18.2401 22.4493 18.4099 22.7608 18.4099C22.8935 18.4099 23.0281 18.3792 23.1541 18.3141L25.96 16.8663C28.1951 15.713 29.5836 13.4342 29.5836 10.9192V8.23355C29.5836 6.2727 30.9706 4.62956 32.8149 4.23365V7.14042C32.8149 7.61506 33.1998 7.9998 33.6743 7.9998H34.9411C36.2477 7.9998 37.4204 8.77763 37.9288 9.98136C38.0632 10.2996 38.375 10.5064 38.7204 10.5064H41.2233C41.5359 10.5064 41.8308 10.6436 42.0322 10.8828C42.2337 11.1219 42.3187 11.4358 42.2656 11.744L41.9476 13.5889C41.7457 14.7591 40.7375 15.6083 39.5501 15.6083H35.7241C35.7151 15.6083 35.7064 15.6094 35.6975 15.6097C35.6885 15.6095 35.6799 15.6083 35.6708 15.6083C35.1963 15.6083 34.8114 15.9931 34.8114 16.4677V20.6697C34.8114 23.7095 34.2247 26.6733 33.0675 29.4789C32.9962 29.6518 32.9833 29.8431 33.0305 30.024L35.1443 38.1081C35.1812 38.2493 35.2534 38.3787 35.3542 38.4842L36.1095 39.2752C36.2461 39.4182 36.2105 39.5705 36.1771 39.6484C36.1437 39.7265 36.0581 39.8574 35.8604 39.8574H32.9975L29.3042 30.288V26.3139C29.3042 25.8393 28.9194 25.4545 28.4448 25.4545C27.9702 25.4545 27.5854 25.8393 27.5854 26.3139V30.4481C27.5854 30.5539 27.6049 30.6589 27.6431 30.7576L31.1552 39.8573H28.1321C27.7172 37.1688 25.3878 35.1038 22.585 35.1038H21.615L21.2314 32.8274C20.8214 30.3946 18.997 28.4918 16.5835 27.98L14.9579 27.6352C14.494 27.5368 14.0374 27.8333 13.939 28.2975C13.8405 28.7619 14.137 29.218 14.6014 29.3165L16.227 29.6613C17.9455 30.0258 19.2445 31.3807 19.5364 33.113L19.872 35.1037H14.577C14.1025 35.1037 13.7177 35.4884 13.7177 35.9631C13.7177 36.4377 14.1025 36.8224 14.577 36.8224H22.585C24.4371 36.8224 25.9913 38.122 26.3835 39.8572H14.4366C10.1371 39.8572 6.63919 36.3592 6.63919 32.0597C6.63919 28.8371 8.4182 25.9173 11.282 24.4397L16.2826 21.8595C16.7043 21.6419 16.8698 21.1235 16.6522 20.7017C16.4346 20.2799 15.916 20.1143 15.4944 20.3321L10.4939 22.9123C9.12194 23.6202 7.95826 24.6043 7.0541 25.7766C6.95914 25.3261 6.91084 24.8642 6.91084 24.393C6.91084 21.9935 8.211 19.7694 10.3039 18.5888C10.8708 18.269 11.1398 17.6283 10.9733 16.9944C10.7981 16.3271 10.1987 15.8603 9.51322 15.855C9.50927 15.8549 9.50549 15.8544 9.50153 15.8544C9.49904 15.8544 9.49646 15.8544 9.49388 15.8545C9.49285 15.8545 9.49191 15.8546 9.49088 15.8546C4.35959 15.8603 0.103763 20.0865 0.00184078 25.2805C-0.069316 28.9048 1.92754 32.2815 5.11387 33.9743C6.00239 38.307 9.84494 41.5759 14.4366 41.5759H35.8605C36.7003 41.5759 37.4271 41.0963 37.7573 40.3242C38.0877 39.5522 37.9325 38.6953 37.3526 38.0879L36.7508 37.4579L34.7655 29.8651C35.9365 26.9305 36.5301 23.8383 36.5301 20.6696V17.327H39.5501C41.5763 17.327 43.297 15.8777 43.6412 13.8808L43.9593 12.0358C44.0989 11.227 43.8756 10.4031 43.3467 9.77537V9.77537ZM1.72035 25.3143C1.79829 21.3426 4.82546 18.0599 8.6351 17.6227C6.49026 19.1891 5.19225 21.7033 5.19225 24.393C5.19225 25.5513 5.42274 26.6666 5.87709 27.715C5.28884 28.9819 4.95669 30.3768 4.92447 31.8274C2.89418 30.3204 1.66973 27.8937 1.72035 25.3143Z" fill="black"/>
<path d="M35.8113 11.5267C35.971 11.3668 36.063 11.1451 36.063 10.9191C36.063 10.6931 35.9711 10.4714 35.8113 10.3115C35.6514 10.1517 35.4296 10.0597 35.2037 10.0597C34.9768 10.0597 34.7559 10.1517 34.5961 10.3115C34.4355 10.4714 34.3443 10.6931 34.3443 10.9191C34.3443 11.1451 34.4355 11.3668 34.5961 11.5267C34.7559 11.6865 34.9777 11.7785 35.2037 11.7785C35.4296 11.7785 35.6505 11.6865 35.8113 11.5267Z" fill="black"/>
<path d="M19.3239 20.1825C19.55 20.1825 19.7708 20.0914 19.9315 19.9315C20.0913 19.7708 20.1833 19.55 20.1833 19.3239C20.1833 19.0979 20.0914 18.8762 19.9315 18.7155C19.7716 18.5557 19.55 18.4646 19.3239 18.4646C19.097 18.4646 18.8753 18.5557 18.7156 18.7155C18.5557 18.8754 18.4645 19.0971 18.4645 19.3239C18.4645 19.55 18.5557 19.7717 18.7156 19.9315C18.8754 20.0914 19.0971 20.1825 19.3239 20.1825Z" fill="black"/>
</g>
<defs>
<clipPath id="clip0_32_84">
<rect width="44" height="44" fill="white"/>
</clipPath>
</defs>
</svg>
