<svg width="58" height="14" viewBox="0 0 58 14" fill="none" xmlns="http://www.w3.org/2000/svg">
<g clip-path="url(#clip0_1_198)">
<path fill-rule="evenodd" clip-rule="evenodd" d="M3.22529 13.1285C3.03716 13.1285 2.85341 13.0708 2.70029 12.9622C2.40279 12.7522 2.27154 12.3786 2.36516 12.0278L3.38366 8.31513L0.332539 5.8975C0.0437889 5.67437 -0.0699611 5.29375 0.0437889 4.949C0.159289 4.6025 0.476914 4.36275 0.842664 4.34525L4.76704 4.14663L6.16704 0.559125C6.30529 0.2205 6.63254 0 7.00004 0C7.36491 0 7.69304 0.221375 7.82954 0.56L9.23566 4.1475L13.1592 4.34613C13.524 4.36363 13.8417 4.6025 13.9589 4.94987C14.0727 5.29463 13.9589 5.6735 13.6719 5.89838L10.6225 8.3125L11.6419 12.0243C11.7364 12.3742 11.6025 12.7479 11.3059 12.9579C11.0084 13.1696 10.6103 13.1801 10.2997 12.9841L7.00441 10.8841L3.70916 12.9841C3.56566 13.0769 3.39766 13.1267 3.22616 13.1276L3.22529 13.1285Z" fill="#FFCE50"/>
</g>
<g clip-path="url(#clip1_1_198)">
<path fill-rule="evenodd" clip-rule="evenodd" d="M25.2253 13.1285C25.0372 13.1285 24.8534 13.0708 24.7003 12.9622C24.4028 12.7522 24.2715 12.3786 24.3652 12.0278L25.3837 8.31513L22.3325 5.8975C22.0438 5.67437 21.93 5.29375 22.0438 4.949C22.1593 4.6025 22.4769 4.36275 22.8427 4.34525L26.767 4.14663L28.167 0.559125C28.3053 0.2205 28.6325 0 29 0C29.3649 0 29.693 0.221375 29.8295 0.56L31.2357 4.1475L35.1592 4.34613C35.524 4.36363 35.8417 4.6025 35.9589 4.94987C36.0727 5.29463 35.9589 5.6735 35.6719 5.89838L32.6225 8.3125L33.6419 12.0243C33.7364 12.3742 33.6025 12.7479 33.3059 12.9579C33.0084 13.1696 32.6103 13.1801 32.2997 12.9841L29.0044 10.8841L25.7092 12.9841C25.5657 13.0769 25.3977 13.1267 25.2262 13.1276L25.2253 13.1285ZM29.0035 8.97575C29.175 8.97575 29.343 9.02475 29.4874 9.11575L31.3223 10.2839L30.7562 8.22412C30.6643 7.88812 30.7824 7.53113 31.0554 7.31588L32.7468 5.97712L30.5707 5.86513C30.2224 5.84938 29.9162 5.63063 29.7875 5.30688L29 3.3075V8.98012L29.0035 8.97575Z" fill="#FFCE50"/>
</g>
<g clip-path="url(#clip2_1_198)">
<path fill-rule="evenodd" clip-rule="evenodd" d="M46.7003 12.9614C46.4028 12.7514 46.2715 12.3786 46.3652 12.0278L47.3837 8.31513L44.3325 5.8975C44.0438 5.67437 43.93 5.29375 44.0438 4.949C44.1593 4.6025 44.4769 4.36275 44.8427 4.34525L48.767 4.14663L50.167 0.559125C50.3053 0.2205 50.6325 0 51 0C51.3649 0 51.693 0.221375 51.8295 0.56L53.2357 4.1475L57.1592 4.34613C57.524 4.36363 57.8417 4.6025 57.9589 4.94987C58.0727 5.29463 57.9589 5.6735 57.6719 5.89838L54.6225 8.3125L55.6419 12.0243C55.7364 12.3742 55.6025 12.7479 55.3059 12.9579C55.0084 13.1696 54.6103 13.1801 54.2997 12.9841L51.0044 10.8841L47.7092 12.9841C47.5657 13.0769 47.3977 13.1267 47.2262 13.1276C47.038 13.1276 46.8543 13.0699 46.7012 12.9614H46.7003ZM51.4865 9.11662L53.3223 10.283L52.7562 8.22325C52.6643 7.88725 52.7824 7.53025 53.0554 7.315L54.7468 5.97625L52.5707 5.86425C52.2224 5.8485 51.9162 5.62975 51.7875 5.306L51 3.3075L50.216 5.30775C50.0874 5.63325 49.7785 5.85287 49.4285 5.86775L47.2515 5.978L48.9438 7.31675C49.2168 7.53288 49.3349 7.88987 49.2439 8.225L48.6778 10.29L50.5118 9.12187C50.6579 9.02563 50.8294 8.97575 51.0035 8.97575C51.175 8.97575 51.343 9.02475 51.4874 9.11575L51.4865 9.11662Z" fill="#FFCE50"/>
</g>
<defs>
<clipPath id="clip0_1_198">
<rect width="14" height="14" fill="white"/>
</clipPath>
<clipPath id="clip1_1_198">
<rect width="14" height="14" fill="white" transform="translate(22)"/>
</clipPath>
<clipPath id="clip2_1_198">
<rect width="14" height="14" fill="white" transform="translate(44)"/>
</clipPath>
</defs>
</svg>
