<svg width="44" height="44" viewBox="0 0 44 44" fill="none" xmlns="http://www.w3.org/2000/svg">
<g clip-path="url(#clip0_95_40)">
<path d="M43.6559 8.39817L38.5777 5.45836C38.1357 4.62014 37.5262 3.87086 36.77 3.25349C35.2878 2.04333 33.4232 1.4825 31.5193 1.67526C29.8168 1.84722 28.2305 2.62374 27.0526 3.86192C25.9508 5.02009 25.2682 6.51332 25.1118 8.09232L6.3319 31.0937C6.18864 31.2692 6.14078 31.5038 6.20394 31.7214C6.2671 31.939 6.43322 32.1115 6.64823 32.1829C7.49385 32.464 8.34359 32.6928 9.19394 32.8692L7.41419 34.3799C7.12415 34.6261 7.08866 35.0607 7.33487 35.3507C7.58108 35.6407 8.01557 35.6763 8.30561 35.43L10.9784 33.1611C11.2719 33.1964 11.5651 33.2254 11.8581 33.2481C11.9517 33.2555 12.0453 33.2627 12.1387 33.2687C12.1584 33.27 12.1779 33.271 12.1976 33.2722C13.392 33.3466 14.5623 33.3145 15.7019 33.1755C15.7881 33.1652 15.8737 33.1537 15.9594 33.1422C15.9825 33.1391 16.0057 33.136 16.0287 33.1327C16.2006 33.1684 16.3717 33.2025 16.5417 33.2351C13.0796 37.8934 7.6139 40.7838 1.77399 40.9745L6.58688 36.8889C6.87691 36.6427 6.9124 36.2081 6.66619 35.9182C6.42016 35.6282 5.98558 35.5927 5.69545 35.8389L0.40906 40.3264C0.0356653 40.6435 -0.0965053 41.1455 0.0724462 41.6052C0.241312 42.065 0.666956 42.3621 1.1568 42.3621C4.7138 42.3621 8.22766 41.4315 11.3184 39.671C14.0009 38.1431 16.3076 36.0217 18.0562 33.4888C19.323 33.6694 20.533 33.7608 21.6836 33.7608C22.281 33.7608 22.8621 33.7359 23.4275 33.6874V37.3413L20.9863 39.0793C20.6764 39.2999 20.6042 39.73 20.8247 40.0398C21.0452 40.3496 21.4751 40.422 21.7851 40.2014L23.9145 38.6855L24.8658 40.2377C24.9957 40.4497 25.2219 40.5667 25.4536 40.5667C25.5763 40.5667 25.7006 40.5339 25.8128 40.465C26.1371 40.2662 26.2389 39.8422 26.0402 39.518L25.649 38.8797L27.2918 39.3766L28.3569 40.9217C28.4905 41.1155 28.7056 41.2195 28.9246 41.2195C29.0594 41.2195 29.1954 41.1801 29.3148 41.0978C29.628 40.8819 29.7069 40.453 29.4909 40.1398L28.289 38.3963C28.2004 38.2678 28.0708 38.1731 27.9213 38.128L25.6782 37.4495L27.6835 36.0219L28.6347 37.5741C28.7646 37.7861 28.9908 37.9032 29.2225 37.9031C29.3452 37.9031 29.4694 37.8703 29.5817 37.8015C29.906 37.6027 30.0078 37.1787 29.809 36.8544L29.4178 36.2161L31.0606 36.713L32.1257 38.2581C32.2593 38.4519 32.4744 38.5559 32.6934 38.5559C32.8282 38.5559 32.9643 38.5165 33.0836 38.4342C33.3968 38.2183 33.4758 37.7894 33.2597 37.4762L32.0578 35.7326C31.9692 35.6042 31.8396 35.5095 31.6901 35.4644L28.5736 34.5217V32.3776C29.3489 32.0177 30.0759 31.5877 30.7536 31.0877C35.1935 27.8119 36.5728 22.247 36.948 18.1555C36.9828 17.7767 36.7039 17.4415 36.3252 17.4067C35.9459 17.3718 35.6112 17.6509 35.5764 18.0297C35.2268 21.8403 33.9645 27.0067 29.9358 29.9793C27.3086 31.9176 23.8122 32.6865 19.5088 32.2765C20.2987 31.9885 21.0545 31.6419 21.7717 31.2387C21.7757 31.2364 21.7799 31.234 21.7839 31.2317C21.9133 31.1588 22.0413 31.0841 22.1682 31.0075C22.1923 30.993 22.2162 30.9784 22.2402 30.9638C22.3473 30.8982 22.4535 30.8313 22.5588 30.7632C22.5917 30.742 22.6246 30.7208 22.6574 30.6993C22.7554 30.6347 22.8525 30.5686 22.949 30.5017C22.9831 30.478 23.0177 30.4548 23.0517 30.4308C23.1562 30.3569 23.2595 30.2813 23.3621 30.2047C23.3847 30.1878 23.4078 30.1715 23.4303 30.1546C23.5515 30.0628 23.6713 29.969 23.7896 29.8736C23.8308 29.8402 23.8711 29.8057 23.912 29.772C23.9889 29.7085 24.0657 29.6448 24.1412 29.5797C24.1907 29.537 24.2394 29.4934 24.2884 29.4499C24.3544 29.3914 24.4204 29.3326 24.4853 29.273C24.5353 29.227 24.5848 29.1803 24.6343 29.1337C24.6976 29.0737 24.7605 29.0133 24.8229 28.952C24.8708 28.9051 24.9183 28.858 24.9655 28.8104C25.0295 28.7458 25.0926 28.6803 25.1556 28.6143C25.199 28.5688 25.2426 28.5235 25.2855 28.4774C25.3548 28.4028 25.423 28.3268 25.4909 28.2507C25.5257 28.2116 25.561 28.1731 25.5955 28.1336C25.6971 28.0169 25.7974 27.8987 25.8957 27.7784C25.9637 27.6953 26.0306 27.6112 26.0966 27.5266C26.1139 27.5044 26.1308 27.4816 26.1479 27.4594C26.1963 27.3964 26.2446 27.3335 26.2921 27.2698C26.3102 27.2455 26.3276 27.2208 26.3455 27.1964C26.3916 27.1337 26.4376 27.0708 26.4825 27.0074C26.4987 26.9845 26.5146 26.9613 26.5306 26.9381C26.5767 26.8724 26.6226 26.8065 26.6674 26.74C26.6814 26.7194 26.695 26.6985 26.7088 26.6777C26.7554 26.6078 26.8018 26.5378 26.8471 26.467C26.8582 26.4497 26.8691 26.4322 26.8803 26.4147C26.9281 26.3398 26.9752 26.2645 27.0215 26.1886C27.0297 26.1751 27.0377 26.1615 27.0459 26.148C27.0948 26.0674 27.1428 25.9864 27.1902 25.9048C27.1955 25.8955 27.2008 25.8862 27.2062 25.8769C27.2562 25.7899 27.3054 25.7026 27.3537 25.6146C27.356 25.6107 27.358 25.6066 27.3603 25.6027C27.8119 24.7778 28.1828 23.9073 28.4705 22.9994C29.3786 20.2189 29.4562 17.0825 28.6979 13.888C28.2496 11.9758 27.5063 10.078 26.4853 8.25853C26.4834 8.255 26.4816 8.25156 26.4797 8.24804C26.7382 5.4985 28.8863 3.3255 31.6578 3.04552C33.1952 2.89032 34.7017 3.34295 35.8989 4.32039C36.553 4.85449 37.0709 5.51087 37.4326 6.24666C37.4338 6.24915 37.4344 6.25173 37.4356 6.25422C37.5088 6.40341 37.575 6.55543 37.6348 6.7096C37.6384 6.71863 37.6418 6.72748 37.6453 6.73641C37.6705 6.80233 37.6941 6.86884 37.7168 6.9357C37.7241 6.95736 37.7314 6.97901 37.7385 7.00076C37.7574 7.05851 37.7753 7.11651 37.7924 7.17495C37.8018 7.20743 37.8108 7.24026 37.8197 7.273C37.8334 7.32345 37.8469 7.37389 37.8594 7.42477C37.8698 7.46748 37.8792 7.51053 37.8886 7.55359C37.8981 7.59673 37.9079 7.63987 37.9165 7.68335C37.9272 7.73809 37.9363 7.79326 37.9455 7.84852C37.9511 7.88212 37.9575 7.91547 37.9625 7.94924C37.9758 8.03853 37.9872 8.12825 37.9964 8.21857C37.9965 8.21934 37.9966 8.22003 37.9966 8.22089C38.0056 8.30931 38.0117 8.39757 38.0167 8.48574C38.0178 8.50628 38.0191 8.52699 38.02 8.54753C38.0237 8.62814 38.0255 8.70866 38.0259 8.78901C38.0259 8.81772 38.0255 8.8465 38.0251 8.87521C38.0245 8.93519 38.0227 8.995 38.0201 9.05481C38.0182 9.10036 38.0157 9.14582 38.0126 9.19128C38.0093 9.24336 38.0051 9.29535 38.0002 9.34717C37.9966 9.38636 37.9928 9.42563 37.9883 9.46473C37.9807 9.53168 37.9719 9.59854 37.9617 9.66514C37.9562 9.70286 37.9496 9.74042 37.9432 9.77797C37.934 9.83168 37.9241 9.88539 37.9134 9.93893C37.9055 9.97786 37.8975 10.0168 37.8889 10.0555C37.8745 10.1198 37.8593 10.1839 37.8428 10.2478C37.8366 10.2717 37.8306 10.2957 37.8242 10.3194C37.8023 10.3996 37.7788 10.4793 37.7534 10.5588C37.4184 11.6101 36.7839 12.5596 35.9002 13.283C35.7286 13.4236 35.6351 13.6382 35.6492 13.8596C35.6761 14.2829 35.7055 14.9698 35.6929 15.8376C35.6873 16.218 35.9912 16.5308 36.3716 16.5364C36.375 16.5364 36.3784 16.5365 36.3818 16.5365C36.7574 16.5365 37.0648 16.2347 37.0702 15.8578C37.0806 15.1512 37.0643 14.5567 37.0432 14.1165C37.9002 13.3415 38.5446 12.3856 38.9419 11.3346C40.6266 10.7454 43.5238 9.65027 43.555 9.63858C43.8038 9.54457 43.9761 9.31563 43.9978 9.05052C44.0189 8.78523 43.8861 8.53146 43.6559 8.39817ZM24.8048 33.5157C25.6413 33.3775 26.4388 33.181 27.1964 32.9259V34.6778L24.8048 36.3804V33.5157ZM26.4839 11.4484C26.5428 11.5971 26.6009 11.7458 26.656 11.8948L26.6826 11.9677C28.5883 17.1882 28.0735 22.5781 25.1678 26.4729C25.1625 26.48 25.157 26.4872 25.1516 26.4943C25.047 26.6338 24.9397 26.7717 24.8289 26.9073C24.7528 27.0005 24.6753 27.0921 24.5969 27.183C24.573 27.2107 24.5487 27.2378 24.5245 27.2652C24.4682 27.3293 24.4116 27.3928 24.3542 27.4557C24.3274 27.485 24.3004 27.5142 24.2733 27.5432C24.2145 27.6063 24.1553 27.6688 24.0954 27.7306C24.0714 27.7552 24.0476 27.7802 24.0234 27.8046C23.945 27.8842 23.8658 27.9629 23.7856 28.0405C23.7803 28.0455 23.7751 28.0509 23.7698 28.0559C23.6799 28.1423 23.5887 28.2274 23.4965 28.3112C23.4843 28.3222 23.472 28.3328 23.4599 28.3437C23.3822 28.4136 23.3037 28.4827 23.2244 28.5506C23.2018 28.5699 23.179 28.5892 23.1562 28.6083C23.0849 28.6687 23.013 28.7281 22.9404 28.7869C22.9165 28.8062 22.8927 28.8256 22.8686 28.8447C22.7901 28.9074 22.7108 28.969 22.6308 29.0298C22.6141 29.0424 22.5976 29.0554 22.581 29.0681C22.4833 29.1417 22.3846 29.2139 22.2848 29.2848C22.2716 29.2942 22.258 29.3033 22.2447 29.3127C22.1625 29.3706 22.0795 29.4277 21.9957 29.4839C21.9572 29.5096 21.9183 29.5349 21.8796 29.5603C21.8216 29.5983 21.7632 29.6361 21.7045 29.6733C21.656 29.7039 21.6073 29.7344 21.5584 29.7645C21.5118 29.7932 21.4647 29.8214 21.4176 29.8497C21.3591 29.8846 21.3009 29.9195 21.2419 29.9537C21.219 29.9669 21.1957 29.9796 21.1726 29.9928C20.2031 30.5449 19.1512 30.9842 18.0284 31.3047C18.0274 31.3049 18.0264 31.305 18.0254 31.3053C17.7671 31.3792 17.5063 31.446 17.2436 31.5069C17.169 31.5241 17.0941 31.5405 17.0189 31.5566C16.9845 31.5641 16.9501 31.5714 16.9156 31.5786C16.5954 31.6452 16.2704 31.703 15.9404 31.7511C15.9222 31.7538 15.9043 31.7574 15.8867 31.7614C15.8705 31.7638 15.8543 31.7657 15.8381 31.768C15.7265 31.7838 15.6144 31.798 15.5021 31.8116C15.4231 31.821 15.3438 31.8295 15.2642 31.8378C15.2135 31.8432 15.1628 31.8486 15.112 31.8535C14.9929 31.8647 14.8736 31.875 14.7535 31.8839C14.741 31.8848 14.7283 31.8858 14.7157 31.8867C14.2908 31.9172 13.8595 31.9326 13.4225 31.9326C13.132 31.9326 12.8406 31.9251 12.5489 31.9114C12.482 31.9082 12.4153 31.905 12.3483 31.9011C12.2947 31.898 12.241 31.8945 12.1873 31.891C11.7476 31.8615 11.3044 31.8171 10.8575 31.7565C10.8546 31.7562 10.8516 31.7562 10.8486 31.7558C9.91537 31.6288 8.97978 31.4342 8.04668 31.1715L25.6485 9.61289C25.6602 9.63557 25.6725 9.65792 25.6839 9.68061C25.7078 9.72736 25.73 9.77428 25.7535 9.82103C25.8754 10.0647 25.9927 10.3103 26.1044 10.5571C26.1215 10.5947 26.1393 10.6323 26.1561 10.6699C26.1585 10.6757 26.1609 10.6815 26.1633 10.6872C26.2081 10.7879 26.2516 10.8896 26.2949 10.9912C26.3202 11.0507 26.3455 11.1102 26.3701 11.1697C26.4089 11.2627 26.4469 11.3558 26.4839 11.4484ZM39.3447 9.7289C39.4058 9.25969 39.4194 8.78437 39.3858 8.30605C39.3855 8.30235 39.3855 8.29866 39.3852 8.29505C39.3801 8.22424 39.3741 8.15334 39.3669 8.08236C39.3555 7.96995 39.3413 7.85823 39.3247 7.74703C39.3184 7.70458 39.3104 7.66273 39.3035 7.62062C39.2942 7.5651 39.286 7.50924 39.2755 7.45399L41.7056 8.86077C41.0004 9.12348 40.1258 9.44703 39.3447 9.7289Z" fill="black"/>
<path d="M34.4708 7.78698C34.9565 7.78698 35.3502 7.39326 35.3502 6.90759C35.3502 6.42191 34.9565 6.0282 34.4708 6.0282C33.9851 6.0282 33.5914 6.42191 33.5914 6.90759C33.5914 7.39326 33.9851 7.78698 34.4708 7.78698Z" fill="black"/>
</g>
<defs>
<clipPath id="clip0_95_40">
<rect width="44" height="44" fill="white"/>
</clipPath>
</defs>
</svg>
