<svg width="44" height="44" viewBox="0 0 44 44" fill="none" xmlns="http://www.w3.org/2000/svg">
<g clip-path="url(#clip0_1_77)">
<path d="M13.6074 11.7054C13.6074 10.7899 13.03 10.0725 12.2928 10.0725C11.5559 10.0725 10.9785 10.7896 10.9785 11.7054C10.9785 12.6208 11.5559 13.3378 12.2928 13.3378C13.03 13.3378 13.6074 12.6208 13.6074 11.7054Z" fill="black"/>
<path d="M24.4761 11.7054C24.4761 10.7899 23.8987 10.0725 23.1618 10.0725C22.4247 10.0725 21.8473 10.7896 21.8473 11.7054C21.8473 12.6208 22.4247 13.3378 23.1618 13.3378C23.8987 13.3378 24.4761 12.6208 24.4761 11.7054Z" fill="black"/>
<path d="M17.7273 16.6914C18.0851 16.6914 18.3748 16.4017 18.3748 16.0438V14.5919C19.1312 14.3751 19.7169 13.8024 19.7169 13.1867C19.7169 12.9612 19.63 12.4156 18.8253 12.2253C18.5615 12.1629 18.2332 12.136 17.7273 12.136C17.2217 12.136 16.8934 12.1629 16.6292 12.2253C15.8246 12.4156 15.7376 12.9612 15.7376 13.1867C15.7376 13.8024 16.3234 14.3751 17.0797 14.5919V16.0438C17.0797 16.4017 17.3698 16.6914 17.7273 16.6914Z" fill="black"/>
<path d="M32.6925 17.9817C33.4911 19.8418 34.4851 22.1564 34.2908 24.7422C34.138 26.7715 33.5663 28.8833 32.6808 30.6887C32.5233 31.0099 32.6559 31.3977 32.9772 31.5551C33.0688 31.6001 33.1662 31.6216 33.2619 31.6216C33.5012 31.6216 33.7312 31.4883 33.844 31.259C34.8 29.309 35.4174 27.0293 35.5822 24.8392C35.8007 21.9368 34.7372 19.4604 33.8826 17.4704C33.3938 16.3321 32.9715 15.3488 32.9342 14.6127C32.8946 13.8292 33.565 13.0312 34.3693 12.905C34.8359 12.8315 36.4369 12.8835 37.4379 16.6305C37.5302 16.9759 37.885 17.1811 38.2308 17.0891C38.5762 16.9968 38.7817 16.6416 38.6894 16.2962C38.2345 14.5949 37.5822 13.3283 36.7501 12.5317C35.9911 11.8049 35.0733 11.4833 34.1679 11.6253C32.7009 11.856 31.5669 13.2252 31.6408 14.6781C31.6898 15.6466 32.1544 16.7289 32.6925 17.9817Z" fill="black"/>
<path d="M39.4584 23.6157C39.4588 21.8849 39.3688 20.3075 39.1909 18.9271C39.1456 18.5723 38.8203 18.3222 38.4661 18.3675C38.1113 18.4131 37.8609 18.7378 37.9062 19.0922C38.077 20.4182 38.1633 21.9399 38.163 23.6154C38.1623 26.8239 37.4748 29.7065 36.1196 32.1836C35.0363 34.1642 33.5227 35.8977 31.621 37.3358C30.7888 37.9653 29.9526 38.4829 29.1677 38.9055C29.4658 38.2436 29.6129 37.4835 29.6129 36.6161C29.6129 36.5298 29.6109 36.4385 29.6075 36.3449C30.6424 35.6332 31.5774 34.7272 32.3901 33.6449C32.6049 33.3589 32.5472 32.953 32.2612 32.7382C31.9752 32.5233 31.5693 32.5811 31.3545 32.8671C30.7861 33.6237 30.1537 34.2824 29.4665 34.8359C28.8512 30.2869 26.4681 22.0259 25.7712 19.6639C26.9069 19.2376 27.9968 18.3017 28.679 16.9512L29.6011 17.4524C29.9116 17.6206 30.3111 17.5024 30.4793 17.1922C30.6502 16.878 30.5337 16.4849 30.2195 16.314L29.1449 15.7303C29.2728 15.2596 29.3547 14.7544 29.3819 14.217L30.4471 14.035C30.7999 13.9749 31.0369 13.6406 30.9768 13.2878C30.9164 12.9353 30.582 12.6986 30.2292 12.7584L29.2899 12.9185C28.8122 10.239 26.7662 6.86965 26.2509 6.05156C26.2677 5.61684 26.2912 4.58324 26.1955 3.51037C26.0048 1.37133 25.4362 0.232992 24.4573 0.0305685C23.4962 -0.167826 22.5294 0.600576 21.5015 2.38109C21.0691 3.12969 20.7237 3.88701 20.53 4.33819H14.9246C14.7309 3.88701 14.3855 3.12969 13.9531 2.38109C12.9252 0.600576 11.9584 -0.168162 10.9973 0.0305685C10.0185 0.232992 9.44979 1.37133 9.25911 3.51037C9.16344 4.58291 9.18694 5.61684 9.20406 6.05156C8.68844 6.86965 6.64272 10.239 6.16469 12.9185L5.22542 12.7584C4.87294 12.6983 4.53826 12.9353 4.47817 13.2878C4.41808 13.6406 4.65508 13.9749 5.00756 14.035L6.07271 14.217C6.0999 14.7544 6.18215 15.2596 6.30971 15.7303L5.23516 16.314C4.92095 16.4849 4.8048 16.878 4.97533 17.1922C5.14385 17.5024 5.54299 17.6209 5.85351 17.4524L6.77565 16.9512C7.45812 18.302 8.54812 19.2379 9.6841 19.6639C9.49947 20.291 9.19332 21.3437 8.8348 22.6251C8.73845 22.9695 8.93953 23.327 9.28396 23.4234C9.62838 23.52 9.98589 23.3186 10.0822 22.9742C10.6637 20.8949 11.1064 19.4232 11.1108 19.4085C11.2202 19.0459 10.9839 18.6569 10.6123 18.5857C9.06844 18.2906 7.45611 16.6424 7.36144 14.0639C7.3225 13.0004 7.82738 11.381 8.82171 9.38131C9.59581 7.82503 10.3951 6.5927 10.4032 6.58062C10.4787 6.46447 10.5149 6.3275 10.5069 6.1892C10.5062 6.17678 10.4347 4.91289 10.5492 3.62551C10.7117 1.80404 11.1172 1.32836 11.2598 1.29915C11.4015 1.26894 11.9591 1.52138 12.8252 3.0179C13.4415 4.08272 13.8846 5.20998 13.889 5.2214C13.9857 5.46981 14.2254 5.63329 14.4922 5.63329H20.9627C21.2296 5.63329 21.469 5.46981 21.566 5.2214C21.5703 5.20998 22.0081 4.09414 22.6231 3.02898C23.4928 1.52306 24.0531 1.26961 24.1951 1.29915C24.3371 1.32836 24.7413 1.80169 24.9044 3.61342C25.0203 4.90114 24.9488 6.17678 24.9477 6.18953C24.94 6.3275 24.9763 6.4648 25.0518 6.58062C25.0599 6.5927 25.8592 7.82503 26.6333 9.38164C27.6276 11.381 28.1325 13.0004 28.0932 14.0639C27.9989 16.6424 26.3862 18.2906 24.8423 18.5857C24.4707 18.6569 24.2347 19.0463 24.3438 19.4088C24.3838 19.5407 28.3178 32.6465 28.3178 36.6161C28.3178 37.9441 27.9049 38.8881 27.0186 39.587C26.265 40.1812 25.1492 40.6099 23.6271 40.8888C23.9863 39.4708 24.3049 37.5054 24.5745 35.0474C25.031 30.8845 25.1931 26.6675 25.1948 26.6255C25.2082 26.268 24.9296 25.9672 24.5721 25.9538C24.2173 25.9387 23.9141 26.219 23.9004 26.5765C23.899 26.6155 23.7486 30.5196 23.331 34.4959C23.087 36.8169 22.8017 38.7048 22.4827 40.107C22.0215 42.1336 21.6143 42.5948 21.4978 42.6895C21.3219 42.5592 20.4736 41.6149 19.9838 35.3908C19.7019 31.807 19.6851 28.2835 19.6851 28.2483C19.6837 27.8914 19.394 27.6031 19.0375 27.6031C19.0369 27.6031 19.0358 27.6031 19.0348 27.6031C18.6773 27.6044 18.3886 27.8955 18.39 28.253C18.39 28.2913 18.4078 32.098 18.7223 35.8554C18.9083 38.0807 19.1611 39.8606 19.4736 41.146C19.4837 41.1876 19.4944 41.2295 19.5048 41.2722C18.9492 41.2893 18.3618 41.298 17.7273 41.298C17.0929 41.298 16.5057 41.2893 15.9498 41.2722C15.9606 41.2295 15.971 41.1872 15.981 41.146C16.2936 39.8606 16.5467 38.0807 16.7327 35.8554C17.0469 32.098 17.0647 28.2913 17.065 28.253C17.0663 27.8955 16.7773 27.6044 16.4198 27.6031C16.4188 27.6031 16.4181 27.6031 16.4171 27.6031C16.0606 27.6031 15.7709 27.8914 15.7696 28.2483C15.7696 28.2835 15.7531 31.8006 15.4715 35.3845C14.9817 41.6146 14.1327 42.5592 13.9568 42.6895C13.8759 42.6237 13.6554 42.3813 13.374 41.5636C13.363 41.5068 13.3448 41.4524 13.32 41.4018C13.2106 41.0634 13.0931 40.6397 12.9719 40.107C12.653 38.7048 12.3676 36.8169 12.1236 34.4959C11.706 30.5196 11.5556 26.6155 11.5542 26.5765C11.5405 26.219 11.2397 25.9384 10.8825 25.9538C10.525 25.9672 10.2464 26.268 10.2598 26.6255C10.2615 26.6675 10.424 30.8845 10.8802 35.0474C11.1497 37.5057 11.4686 39.4708 11.8278 40.8888C10.3088 40.6105 9.19466 40.1835 8.44137 39.5914C7.55144 38.8918 7.13686 37.9465 7.13686 36.6161C7.13686 34.8655 7.92037 31.0077 9.40212 25.46C9.49444 25.1142 9.28933 24.7594 8.94356 24.6671C8.59847 24.5751 8.24331 24.7799 8.15065 25.1257C6.61855 30.8613 5.84176 34.7275 5.84176 36.6161C5.84176 38.3516 6.43023 39.6578 7.64074 40.6095C8.67266 41.4206 10.1839 41.9657 12.2518 42.2715C12.6187 43.2242 13.1417 44 13.9491 44C14.7091 44 15.2022 43.3451 15.5373 42.5539C16.2157 42.58 16.9364 42.5931 17.7273 42.5931C18.5182 42.5931 19.2389 42.58 19.9174 42.5539C20.2524 43.3451 20.7455 44 21.5055 44C22.3132 44 22.8359 43.2242 23.2031 42.2715C23.9571 42.1598 24.6362 42.0157 25.2458 41.8392C25.5312 41.7797 39.4551 38.6068 39.4584 23.6157Z" fill="black"/>
</g>
<defs>
<clipPath id="clip0_1_77">
<rect width="44" height="44" fill="white"/>
</clipPath>
</defs>
</svg>
