<svg width="44" height="44" viewBox="0 0 44 44" fill="none" xmlns="http://www.w3.org/2000/svg">
<g clip-path="url(#clip0_101_23)">
<path d="M43.6353 11.202C43.3899 11.0832 43.0961 11.1312 42.9011 11.3216C42.3737 11.8358 40.7191 13.1165 39.4156 12.8694C37.8704 12.5764 36.7206 13.088 36.0163 13.5848C35.677 12.8614 35.0187 11.9449 33.7715 11.4642C32.0682 10.8076 31.9162 8.01966 31.9148 7.99281C31.9031 7.72694 31.7295 7.49531 31.4777 7.40937C31.2256 7.3231 30.947 7.40031 30.7751 7.60374C28.8922 9.82906 28.53 12.4515 29.7274 15.1871C30.3156 16.5302 31.14 17.5769 31.6375 18.1378C31.4633 18.3053 31.2236 18.5037 30.9215 18.6796C29.9889 19.2221 28.9355 19.2839 27.7901 18.8636C27.0442 18.5897 26.4497 16.9877 25.8206 15.2918C24.2862 11.1551 21.9668 4.90341 13.4882 4.55496C13.132 4.54086 12.8303 4.81781 12.8155 5.17465C12.801 5.53149 13.0783 5.83261 13.4352 5.84738C16.8079 5.98602 19.378 7.13376 21.2918 9.35673C22.9568 11.29 23.8723 13.7584 24.6081 15.7416C25.4074 17.8965 26.0392 19.5984 27.3447 20.0778C28.0342 20.3306 28.6643 20.4306 29.2293 20.4306C30.2199 20.4306 31.0108 20.1238 31.5714 19.7978C32.5211 19.2456 33.0253 18.5165 33.0461 18.4856C33.2247 18.2241 33.1868 17.871 32.9575 17.6524C32.9447 17.64 31.6641 16.4073 30.8977 14.6349C30.1326 12.8658 30.1397 11.2101 30.9155 9.69511C31.2374 10.7945 31.9091 12.1323 33.3059 12.6707C34.8018 13.2478 35.067 14.7601 35.0771 14.8205C35.161 15.3707 35.8878 15.5597 36.2285 15.1179C36.2389 15.1045 37.2839 13.7815 39.1746 14.1404C40.1353 14.3227 41.2132 14.0528 42.3771 13.3384C42.2035 13.9675 41.9464 14.7107 41.5728 15.4388C40.3904 17.7431 38.6287 18.7877 36.3356 18.5444C35.9744 18.5061 35.6441 18.7861 35.6219 19.1479C35.4631 21.7348 34.5648 24.3935 33.0924 26.6346C32.8964 26.933 32.9793 27.3342 33.2777 27.5302C33.5728 27.7239 33.98 27.6393 34.1734 27.3449C35.6461 25.1032 36.5867 22.4723 36.8579 19.8704C39.3864 19.9143 41.4056 18.5981 42.7235 16.029C43.7588 14.0115 43.9871 11.9389 43.9965 11.8516C44.025 11.5807 43.8803 11.3212 43.6353 11.202V11.202Z" fill="black"/>
<path d="M1.30518 18.1133C1.46027 17.9646 1.7295 17.734 2.11488 17.5024C2.96955 16.9881 3.96019 16.7128 5.05892 16.6836C6.44802 16.6457 7.53869 17.3876 8.80057 18.2446C9.92447 19.008 11.1988 19.8734 12.8232 20.1785C13.0693 20.2245 13.312 20.2457 13.5496 20.2457C15.925 20.2457 17.8153 18.1442 17.9023 18.0459C18.1386 17.779 18.1137 17.3715 17.8472 17.1345C17.5803 16.8975 17.1718 16.9216 16.9344 17.1878C16.916 17.209 15.0428 19.2792 13.0615 18.9073C11.7023 18.6521 10.5965 17.9008 9.52701 17.1747C8.20169 16.2744 6.83038 15.3455 5.02468 15.3909C3.5399 15.4298 2.40659 15.8504 1.6063 16.3023C1.85874 15.2573 2.29044 13.8299 3.00212 12.371C4.81084 8.66354 7.48465 6.50939 10.9504 5.96791C11.3032 5.91252 11.5445 5.58186 11.4891 5.22905C11.4341 4.87623 11.1031 4.63487 10.7506 4.68992C6.8861 5.29384 3.79906 7.76589 1.82316 11.8385C0.355501 14.8635 0.0177918 17.6756 0.00436403 17.7938C0.00134278 17.8196 0 17.8461 0 17.8723C0.00100709 18.0482 0.0607607 22.2353 2.92088 26.4332C3.11927 26.7239 3.52781 26.8021 3.8192 26.6034C4.11461 26.4023 4.19081 25.9998 3.98973 25.7047C1.74024 22.4035 1.36661 19.0399 1.30518 18.1133V18.1133Z" fill="black"/>
<path d="M10.4391 14.038C10.4391 14.9521 11.0158 15.6682 11.7517 15.6682C12.4878 15.6682 13.0642 14.9521 13.0642 14.038C13.0642 13.1239 12.4878 12.4079 11.7517 12.4079C11.0158 12.4076 10.4391 13.1239 10.4391 14.038Z" fill="black"/>
<path d="M31.5644 28.5903C29.15 31.1994 25.9113 32.7805 22.1736 33.1837C21.7188 31.6848 21.4163 30.0174 21.7789 28.2973C21.8524 27.9478 21.6288 27.6047 21.2793 27.5312C20.9299 27.4577 20.5868 27.6813 20.5133 28.0307C19.9084 30.9013 20.9034 33.5992 21.6301 35.5691C22.0155 36.6141 22.4952 37.9149 22.183 38.1204C21.9041 38.3037 21.1558 38.2231 20.1128 37.6296C18.6076 36.7726 17.0519 35.1814 15.9512 33.3723C14.9951 31.8013 13.886 29.2641 14.0297 26.0981C14.0458 25.7413 13.7699 25.4388 13.413 25.4227C13.0568 25.4063 12.754 25.6829 12.7376 26.0394C12.6295 28.4205 13.1465 30.5736 13.9854 32.4213C10.518 31.4797 7.68405 29.873 5.55071 27.636C5.30431 27.3775 4.89476 27.3677 4.63628 27.6141C4.37779 27.8609 4.36806 28.2701 4.61446 28.5286C5.49499 29.4517 6.48361 30.2742 7.57528 30.9946C9.20642 35.1052 10.8708 37.3919 12.5241 37.7904C13.2888 37.9744 14.1136 37.8834 14.7252 37.357C15.2268 36.9253 15.5665 36.2506 15.7394 35.3479C16.9418 36.9256 18.3135 38.0935 19.473 38.7535C20.2676 39.2057 21.2357 39.6193 22.1713 39.4726C22.4274 39.4323 22.6758 39.344 22.893 39.2013C24.0643 38.4319 23.4986 36.8978 22.8433 35.1216C22.7614 34.8997 22.6775 34.6715 22.5936 34.4378C26.5276 33.9534 29.944 32.2457 32.5137 29.4692C32.7564 29.207 32.7403 28.7978 32.4781 28.5551C32.2163 28.3124 31.8071 28.3285 31.5644 28.5903V28.5903ZM13.881 36.3771C13.7887 36.4563 13.5084 36.6967 12.8269 36.5325C11.8386 36.2945 10.6358 34.697 9.43839 32.0728C10.9859 32.856 12.7013 33.4673 14.5765 33.903C14.5732 34.6657 14.4466 35.8917 13.881 36.3771V36.3771Z" fill="black"/>
</g>
<defs>
<clipPath id="clip0_101_23">
<rect width="44" height="44" fill="white"/>
</clipPath>
</defs>
</svg>
